<svg width="148" height="137" viewBox="0 0 148 137" fill="none" xmlns="http://www.w3.org/2000/svg">
<path d="M74.0236 69.4073C81.3363 78.9189 89.1688 82.1975 92.171 82.6479C95.5764 83.4135 103.436 83.4315 107.63 77.3787C111.824 71.3258 110.547 63.6543 109.243 60.6252C104.359 49.276 92.6011 23.335 84.6432 10.3645C76.6852 -2.60592 66.9928 4.28336 63.6728 10.3645L39.2076 60.6252C34.193 76.9723 46.0225 82.6479 52.2468 82.6479C63.2289 82.6479 71.3351 73.5506 74.0236 69.4073ZM74.0236 69.4073C66.7108 59.8956 64.1657 54.8155 63.8072 53.4644C62.8663 50.5371 61.5489 43.7366 63.8072 39.9535C64.7035 38.1521 67.9477 34.5222 73.7549 34.4141C79.562 34.306 83.075 38.062 84.1056 39.9535C86.3459 43.5114 87.466 54.3832 74.0236 69.4073Z" stroke="white" stroke-width="6"/>
<path d="M22.672 136H27.976V111.716H22.672V115.148C21.008 112.392 17.42 111.196 14.508 111.196C8.008 111.196 2.184 116.084 2.184 123.832C2.184 131.58 8.008 136.52 14.508 136.52C17.628 136.52 21.008 135.168 22.672 132.516V136ZM7.696 123.78C7.696 119.308 11.128 116.396 15.132 116.396C18.772 116.396 22.62 119.048 22.62 123.78C22.62 128.564 19.084 131.32 15.132 131.32C11.128 131.32 7.696 128.252 7.696 123.78ZM38.7063 111.716H33.4023V136H38.7063V111.716ZM32.4663 101.888C32.4663 103.812 34.1303 105.268 36.0543 105.268C38.0823 105.268 39.5903 103.812 39.5903 101.888C39.5903 99.964 38.0823 98.508 36.0543 98.508C34.1303 98.508 32.4663 99.964 32.4663 101.888ZM49.4752 127.264C49.4752 120.816 51.3992 116.24 55.9752 116.24C57.0152 116.24 58.1592 116.396 59.5632 117.072L60.4472 112.132C59.6672 111.56 57.8472 111.196 56.1312 111.196C53.0632 111.196 50.7232 112.912 49.4752 117.28V111.716H44.1192V136H49.4752V127.264ZM68.2167 123.78C68.2167 119.048 72.0127 116.396 75.6527 116.396C79.7087 116.396 82.9847 119.308 82.9847 123.78C82.9847 128.252 79.7087 131.32 75.6527 131.32C71.7007 131.32 68.2167 128.512 68.2167 123.78ZM68.1647 136V132.464C69.6727 135.116 72.9487 136.52 76.2767 136.52C82.7767 136.52 88.4447 131.528 88.4447 123.884C88.4447 116.084 82.9327 111.196 76.3287 111.196C72.8447 111.196 69.6727 112.548 68.1647 115.2V98.508H62.8087V136H68.1647ZM97.7214 122.948C97.7214 118.164 100.789 116.448 103.961 116.448C107.081 116.448 109.057 118.58 109.057 122.48V136H114.413V121.856C114.413 114.94 111.033 111.196 105.157 111.196C102.505 111.196 99.1254 112.6 97.7214 115.356V111.716H92.3654V136H97.7214V122.948ZM124.994 123.78C124.994 119.048 128.79 116.396 132.43 116.396C136.486 116.396 139.762 119.308 139.762 123.78C139.762 128.252 136.486 131.32 132.43 131.32C128.478 131.32 124.994 128.512 124.994 123.78ZM124.942 136V132.464C126.45 135.116 129.726 136.52 133.054 136.52C139.554 136.52 145.222 131.528 145.222 123.884C145.222 116.084 139.71 111.196 133.106 111.196C129.622 111.196 126.45 112.548 124.942 115.2V98.508H119.586V136H124.942Z" fill="white"/>
</svg>
